<svg width="101" height="99" viewBox="0 0 101 99" fill="none" xmlns="http://www.w3.org/2000/svg">
<path d="M13.7292 90.75C11.625 90.75 9.52085 90.3375 7.41668 89.1C1.52502 85.8 -0.579145 77.9625 2.78752 72.1875L38.5583 13.6126C39.8208 11.9626 41.0833 10.3126 42.7667 9.48759C45.7125 7.83759 49.0792 7.42509 52.4458 8.25009C55.8125 9.07509 58.3375 11.1376 60.4417 14.0251L95.7917 72.1875C97.0542 74.25 97.475 76.3125 97.475 78.375C97.475 81.675 96.2125 84.975 93.6875 87.0375C91.5833 89.5125 88.6375 90.75 85.2708 90.75H13.7292ZM45.7125 18.1501L10.3625 76.3125C9.10001 78.375 9.94168 80.85 12.0458 82.0875C12.4667 82.5 13.3083 82.5 13.7292 82.5H84.85C86.1125 82.5 86.9542 82.0875 87.7959 81.2625C88.6375 80.4375 89.0583 79.6125 89.0583 78.375C89.0583 77.55 89.0583 77.1375 88.6375 76.3125L53.2875 18.1501C52.025 16.0876 49.5 15.6751 47.3958 16.5001C46.5542 16.9126 46.1333 17.3251 45.7125 18.1501Z" fill="url(#paint0_linear_410_14)"/>
<path d="M50.5 57.75C47.975 57.75 46.2917 56.1 46.2917 53.625V37.1251C46.2917 34.6501 47.975 33.0001 50.5 33.0001C53.025 33.0001 54.7083 34.6501 54.7083 37.1251V53.625C54.7083 56.1 53.025 57.75 50.5 57.75Z" fill="url(#paint1_linear_410_14)"/>
<path d="M50.5 74.25C49.2375 74.25 48.3958 73.8375 47.5542 73.0125C46.7125 72.1875 46.2917 71.3625 46.2917 70.125C46.2917 69.7125 46.2917 68.8875 46.7125 68.475C47.1333 68.0625 47.1333 67.65 47.5542 67.2375C47.975 66.825 48.3958 66.4125 48.8167 66.4125C49.6583 66 50.5 66 51.3417 66C51.7625 66 51.7625 66 52.1833 66.4125C52.6042 66.4125 52.6042 66.4125 53.025 66.825C53.025 66.825 53.4458 67.2375 53.8667 67.2375C54.2875 67.65 54.7083 68.0625 54.7083 68.475C54.7083 68.8875 55.1292 69.7125 55.1292 70.125C55.1292 71.3625 54.7083 72.1875 53.8667 73.0125C52.6042 73.8375 51.7625 74.25 50.5 74.25Z" fill="url(#paint2_linear_410_14)"/>
<defs>
<linearGradient id="paint0_linear_410_14" x1="92.4196" y1="13.8487" x2="24.2797" y2="97.2384" gradientUnits="userSpaceOnUse">
<stop stop-color="#003760"/>
<stop offset="1" stop-color="#22B5FB"/>
</linearGradient>
<linearGradient id="paint1_linear_410_14" x1="54.2665" y1="34.7945" x2="41.0835" y2="39.5184" gradientUnits="userSpaceOnUse">
<stop stop-color="#003760"/>
<stop offset="1" stop-color="#22B5FB"/>
</linearGradient>
<linearGradient id="paint2_linear_410_14" x1="54.6652" y1="66.5981" x2="47.7968" y2="74.351" gradientUnits="userSpaceOnUse">
<stop stop-color="#003760"/>
<stop offset="1" stop-color="#22B5FB"/>
</linearGradient>
</defs>
</svg>
