<svg width="24" height="24" viewBox="0 0 24 24" fill="none" xmlns="http://www.w3.org/2000/svg">
<path fill-rule="evenodd" clip-rule="evenodd" d="M1 12C1 5.92487 5.92487 1 12 1C18.0751 1 23 5.92487 23 12C23 18.0751 18.0751 23 12 23C5.92487 23 1 18.0751 1 12Z" fill="url(#paint0_linear_411_16)"/>
<path fill-rule="evenodd" clip-rule="evenodd" d="M17.3107 8.04296C17.7012 8.43348 17.7012 9.06665 17.3107 9.45717L11.1036 15.9572C10.713 16.3477 10.0799 16.3477 9.68935 15.9572L6.68935 12.9572C6.29882 12.5667 6.29882 11.9335 6.68935 11.543C7.07987 11.1524 7.71304 11.1524 8.10356 11.543L10.3965 13.8359L15.8965 8.04296C16.287 7.65243 16.9201 7.65243 17.3107 8.04296Z" fill="white"/>
<defs>
<linearGradient id="paint0_linear_411_16" x1="21.845" y1="2.595" x2="3.42" y2="22.01" gradientUnits="userSpaceOnUse">
<stop stop-color="#1B496B"/>
<stop offset="1" stop-color="#14B1FC"/>
</linearGradient>
</defs>
</svg>
